<svg version="1.1" xmlns="http://www.w3.org/2000/svg" xmlns:xlink="http://www.w3.org/1999/xlink" width="11.96435" height="117.96933" viewBox="0,0,11.96435,117.96933"><g transform="translate(-236.80416,-111.38467)"><g data-paper-data="{&quot;isPaintingLayer&quot;:true}" fill="#000000" fill-rule="nonzero" stroke="none" stroke-width="0.5" stroke-linecap="butt" stroke-linejoin="miter" stroke-miterlimit="10" stroke-dasharray="" stroke-dashoffset="0" style="mix-blend-mode: normal"><path d="M245.31215,198.73414c0.24728,0.17538 0.48817,0.4202 0.71113,0.75464c1.38675,2.08013 -0.69338,3.46688 -0.69338,3.46688l-4.50796,-1.00989c-0.98342,-4.03472 -0.18028,-7.5076 -0.53003,-11.53376c-0.28817,-3.31739 -0.95266,-6.53451 -0.69709,-9.9068c0.23124,-3.05132 0.93058,-6.04217 1.15255,-9.10715c-0.53959,-9.5417 -0.7083,-19.18574 -0.69593,-28.74209c0.00353,-2.72718 0.59535,-5.30917 0.46606,-8.01437c-0.33508,-7.01124 -2.09097,-14.13282 -1.13679,-21.10104c0,0 0.35355,-2.47487 2.82843,-2.12132c2.47487,0.35355 2.12132,2.82843 2.12132,2.82843c-0.98795,6.58251 0.91831,13.53763 1.18272,20.18614c0.11169,2.80845 -0.46576,5.41508 -0.46174,8.22216c0.0137,9.57495 0.17367,19.21968 0.69577,28.78161c-0.22473,3.18384 -0.9193,6.2839 -1.16695,9.44888c-0.24279,3.10282 0.44971,6.06179 0.69461,9.11314c0.24622,3.06779 -0.28103,5.8139 0.03726,8.73453z"/><path d="M238.84946,221.98531c0.0442,-0.0489 0.08841,-0.09781 0.13261,-0.14671c0.11206,-0.74391 0.61445,-1.87448 1.33562,-3.03085c0.00663,-0.05227 0.01402,-0.10476 0.02216,-0.15743l0.18218,-2.1862c0.09421,-1.29477 1.17452,-2.31595 2.49333,-2.31595c0.19362,0 0.3821,0.02201 0.56307,0.06367c0.15934,-0.03702 0.32228,-0.05804 0.4883,-0.06131c0.42491,-0.00838 0.81794,0.09226 1.18107,0.27589c0.26654,-0.03309 0.52653,-0.01881 0.77628,0.05059c2.36067,0.65596 3.15229,8.14241 2.55201,9.84541c-0.43226,1.22633 -1.82671,1.85097 -2.74006,2.77645l-1.89286,0.63148c0,0 -0.52292,0 -1.09045,-0.23916c-0.36887,0.26609 -0.81322,0.43406 -1.2948,0.46567l-0.08645,0.14409c-0.43183,0.74893 -1.24069,1.25305 -2.16731,1.25305c-1.38071,0 -2.5,-1.11929 -2.5,-2.5c0,-0.39673 0.09241,-0.77188 0.25688,-1.10509l1.60131,-3.43138l0.14644,0.06834z"/></g></g></svg>