<svg version="1.1" xmlns="http://www.w3.org/2000/svg" xmlns:xlink="http://www.w3.org/1999/xlink" width="61.5349" height="54.56368" viewBox="0,0,61.5349,54.56368"><g transform="translate(-192.95471,-165.97863)"><g data-paper-data="{&quot;isPaintingLayer&quot;:true}" fill="#000000" fill-rule="nonzero" stroke="none" stroke-width="0.5" stroke-linecap="butt" stroke-linejoin="miter" stroke-miterlimit="10" stroke-dasharray="" stroke-dashoffset="0" style="mix-blend-mode: normal"><path d="M193.9078,195.65018c1.9274,-1.5922 3.51961,0.3352 3.51961,0.3352l3.13119,3.79038c2.06565,2.50053 3.87299,5.2369 6.18569,7.51087c2.21836,2.18121 4.96831,3.74977 7.35897,5.74064c0.99395,0.82773 1.68166,2.11711 2.88244,2.59794c0.57907,0.23188 1.117,-0.56709 1.7106,-0.75874c1.58604,-0.51209 3.20751,-0.9073 4.81482,-1.34815c1.4467,-0.3968 3.01019,-0.48417 4.34706,-1.16475c3.80961,-1.93941 7.57162,-6.13092 10.93316,-8.80152c1.82342,-2.46212 4.21073,-4.5779 5.52502,-7.34548c1.33825,-2.81805 1.9185,-6.55552 2.2035,-9.94195c-0.54005,0.64164 -1.09326,1.27156 -1.65759,1.8896l-0.36754,0.10371l0.06472,0.1086l-2.24393,1.33733c-0.38213,0.23692 -0.83285,0.37371 -1.31553,0.37371c-0.9393,0 -1.75761,-0.51802 -2.18484,-1.28396c-1.39701,0.94906 -2.88945,1.63352 -4.29785,1.08273c-2.16975,-0.84854 -2.01627,-4.24749 -2.50239,-6.52598c-0.01965,-0.09208 -0.01493,-10.00828 -0.01493,-10.27279c0,0 0,-4.5 0,-4.5c0,-1.38071 1.11929,-2.5 2.5,-2.5c0.69036,0 1.31536,0.27982 1.76777,0.73223l1.78564,1.78564c0.52866,-0.53576 1.18645,-0.98823 1.98989,-1.32757c0.67926,-0.28689 1.41439,-0.398 2.16509,-0.40981c1.16622,-0.74482 2.41264,-1.24389 3.3539,-0.54358c0.44967,0.33456 0.80394,0.75228 1.08373,1.22772c0.70866,0.25325 1.37666,0.60745 1.92918,1.09403c0.04727,0.04163 0.09401,0.08369 0.14023,0.12616c1.27855,-0.46832 2.33858,-0.74008 2.67871,-0.51946c1.90381,1.23485 3.10685,3.79402 3.09541,6.06321c-0.00768,1.52157 -1.16164,2.72438 -2.18745,3.96177c0.21025,5.17127 -1.10451,10.88431 -2.0894,14.76672c-0.45022,1.77475 -0.5943,3.66286 -1.37974,5.31681c-0.19708,0.415 -6.11446,8.23463 -6.44666,8.67572c-3.71279,2.99871 -7.99384,7.60707 -12.24445,9.77443c-1.6333,0.83281 -3.5195,1.02874 -5.28258,1.53155c-0.08448,0.02409 -8.16924,2.40024 -8.84494,2.19681c-1.95813,-0.58954 -3.35217,-2.34417 -4.99261,-3.56515c-5.6494,-4.20485 -9.8471,-8.59258 -14.31792,-14.00464l-3.13119,-3.79038c0,0 -1.5922,-1.9274 0.3352,-3.51961z"/></g></g></svg>