<svg version="1.1" xmlns="http://www.w3.org/2000/svg" xmlns:xlink="http://www.w3.org/1999/xlink" width="52.38967" height="101.21356" viewBox="0,0,52.38967,101.21356"><g transform="translate(-197.78582,-116.80187)"><g data-paper-data="{&quot;isPaintingLayer&quot;:true}" fill="#000000" fill-rule="nonzero" stroke="none" stroke-width="0.5" stroke-linecap="butt" stroke-linejoin="miter" stroke-miterlimit="10" stroke-dasharray="" stroke-dashoffset="0" style="mix-blend-mode: normal"><path d="M244.92316,181.71837c-0.79057,2.37171 -3.16228,1.58114 -3.16228,1.58114l-3.72234,-2.46122c-1.38727,-5.60119 -1.69245,-11.28892 -2.37679,-17.01271c-0.49039,-4.10158 -1.64394,-7.98397 -1.64082,-12.15401c0.00261,-3.48974 1.00566,-6.8481 1.95161,-10.16629c0.90522,-3.16621 3.7325,-8.43527 2.96579,-11.82184c-1.25509,-5.54373 -8.09709,-4.32394 -12.2256,-5.22787c-5.27497,-1.15495 -10.24703,-4.70696 -15.59482,-1.4504c-3.24882,1.97838 -5.45925,5.03797 -7.10243,8.31754c-0.47252,0.94309 -1.89199,1.87721 -1.42748,2.82427c0.46827,0.95473 2.08379,0.4254 3.12568,0.6381c0,0 2.30409,0.97014 1.33395,3.27423c-0.97014,2.30409 -3.27423,1.33395 -3.27423,1.33395c-1.89614,-1.02437 -4.80829,-1.10586 -5.68843,-3.07311c-0.94238,-2.10635 0.58166,-4.60252 1.26882,-6.80537c1.28978,-4.13466 5.50496,-8.68355 9.2212,-10.81467c7.00967,-4.01977 12.30643,-0.63682 19.19774,0.86911c6.82063,1.49048 13.92474,0.55038 16.07235,9.15305c1.07374,4.30109 -1.91299,10.12216 -3.06492,14.15661c-0.82429,2.87822 -1.76235,5.82159 -1.7596,8.85365c0.00357,3.93042 1.14014,7.632 1.60648,11.50494c0.66233,5.50061 0.90408,11.0115 2.26221,16.38815l0.45277,-1.06952c0,0 2.37171,0.79057 1.58114,3.16228z"/><path d="M241.5833,217.04239c-1.2999,-0.63328 -1.2999,-2.24982 -1.2999,-2.24982c0.01255,-2.47836 -0.52179,-8.28042 1.72532,-10.39777c1.57077,-1.48007 4.16004,-3.30385 6.05994,-2.27999c2.97906,1.60542 2.19717,8.8213 1.27771,11.33056c-0.53507,1.46024 -0.90484,3.50207 -2.37213,4.01751c-2.67623,0.94012 -4.38504,0.60144 -5.39094,-0.42049z"/></g></g></svg>