<svg version="1.1" xmlns="http://www.w3.org/2000/svg" xmlns:xlink="http://www.w3.org/1999/xlink" width="12.80736" height="121.38246" viewBox="0,0,12.80736,121.38246"><g transform="translate(-234.10398,-111.92412)"><g data-paper-data="{&quot;isPaintingLayer&quot;:true}" fill="#000000" fill-rule="nonzero" stroke="none" stroke-width="0.5" stroke-linecap="butt" stroke-linejoin="miter" stroke-miterlimit="10" stroke-dasharray="" stroke-dashoffset="0" style="mix-blend-mode: normal"><path d="M237.17288,125.2464c-1.66061,-1.07118 -2.3788,-3.18055 -2.00397,-5.33557l-0.20727,-2.27995c-0.00866,-0.08465 -0.0131,-0.17056 -0.0131,-0.25749c0,-0.7036 0.29066,-1.33932 0.75847,-1.79362c-2.2368,-1.91441 -3.50769,-4.32253 5.85216,-3.48417c2.65525,0.23783 3.77332,1.75534 4.08379,3.56925c2.35878,2.6435 1.1001,8.07749 -1.10721,10.18777c-1.3248,1.26657 -3.04398,3.3527 -4.76977,2.73549c-1.62257,-0.58029 -2.33073,-1.8656 -2.5931,-3.34171z"/><path d="M241.734,233.27202c-2.47487,-0.35355 -2.12132,-2.82843 -2.12132,-2.82843l0.21709,-1.49644c0.52415,-5.69934 0.93203,-11.76715 0.9185,-17.47126c0.55399,-9.9719 0.6808,-20.42766 -0.22525,-30.35254c-1.09129,-11.95399 -3.41012,-23.52855 -2.55276,-35.63014c0,0 0.17812,-2.49365 2.67176,-2.31553c2.49365,0.17812 2.31553,2.67176 2.31553,2.67176c-0.8526,11.83513 1.49103,23.18849 2.55015,34.8828c0.91518,10.10498 0.8026,20.73123 0.23865,30.88237c-0.01265,5.81577 -0.41461,11.97596 -0.93711,17.78521l-0.24681,1.75087c0,0 -0.35355,2.47487 -2.82843,2.12132z"/></g></g></svg>