<svg version="1.1" xmlns="http://www.w3.org/2000/svg" xmlns:xlink="http://www.w3.org/1999/xlink" width="51.68757" height="120.6994" viewBox="0,0,51.68757,120.6994"><g transform="translate(-216.84763,-127.42221)"><g data-paper-data="{&quot;isPaintingLayer&quot;:true}" fill="#000000" fill-rule="nonzero" stroke="none" stroke-width="0.5" stroke-linecap="butt" stroke-linejoin="miter" stroke-miterlimit="10" stroke-dasharray="" stroke-dashoffset="0" style="mix-blend-mode: normal"><path d="M232.93319,144.42403c-2,-1.5 -0.5,-3.5 -0.5,-3.5l0.61619,-0.80937c-0.16369,-0.19416 -0.27871,-0.41501 -0.35169,-0.6567c-0.06373,-0.0235 -0.1285,-0.04958 -0.19435,-0.07839c-2.29039,-1.00205 -1.28835,-3.29244 -1.28835,-3.29244c1.61649,-3.56155 4.85264,-10.01051 10.16108,-8.41595c1.70074,0.51087 3.99002,1.4226 4.27802,3.17489c0.20593,1.25297 -0.46669,3.27842 -1.65303,5.25105c-0.41217,2.28761 -1.60827,4.47856 -3.09912,5.46628c-1.29743,0.85958 -2.68458,1.49204 -3.92548,1.61998l-0.54327,0.74065c0,0 -1.5,2 -3.5,0.5z"/><path d="M267.85989,222.40439c1.64626,1.88144 -0.23518,3.5277 -0.23518,3.5277l-1.42174,1.12896c-0.64606,0.96664 -1.29212,1.93327 -1.93817,2.89991c-2.38337,2.82097 -4.71884,5.70519 -6.98684,8.61909c-3.12132,4.01024 -6.71259,9.4041 -12.51262,9.5388c-5.47207,0.12708 -7.62452,-4.16322 -10.63556,-7.86271c-1.94042,-2.38408 -4.81992,-4.33001 -6.27818,-7.08573c-5.2157,-9.85629 -8.68196,-20.79109 -10.49978,-31.68727c-1.3144,-8.67163 -0.59701,-22.56463 8.76764,-26.51991c1.67524,-0.70756 3.45004,-1.32795 5.26593,-1.4261c0.65001,-0.03513 4.36901,1.45932 5.77064,0.92878c0.84808,-0.32102 -0.71331,-6.29771 -0.73796,-6.3923c-1.2384,-4.75194 -2.95585,-8.65049 -2.12503,-13.59139c0,0 0.44721,-2.45967 2.90689,-2.01246c2.45967,0.44721 2.01246,2.90689 2.01246,2.90689c-1.04217,5.17732 2.17455,10.09713 2.8012,15.2225c0.31692,2.59212 0.83009,6.0923 -1.95299,7.93659c-4.57633,3.03263 -4.61141,0.01949 -8.61029,0.00097c-2.8694,-0.01329 -2.9225,1.0131 -4.855,2.32715c-0.65552,0.44574 -1.57669,0.55305 -2.0671,1.17586c-0.57766,0.7336 -1.39864,4.54435 -1.55988,5.38567c-0.86875,4.53301 -1.39273,8.70768 -0.67949,13.26659c0.4376,2.62815 0.51787,5.31859 1.11831,7.91439c1.07567,4.65025 3.44536,9.61332 5.41483,13.94406c2.10258,4.62344 3.25571,8.18002 6.72469,11.83643c2.15023,2.26641 5.35215,9.06124 8.96602,8.73837c4.14614,-0.37042 6.60445,-4.7661 8.82682,-7.62553c2.24654,-2.89054 4.56301,-5.75205 6.93019,-8.54525c0.59101,-0.88897 1.18202,-1.77793 1.77303,-2.6669l2.28947,-2.11834c0,0 1.88144,-1.64626 3.5277,0.23518z"/></g></g></svg>