<svg version="1.1" xmlns="http://www.w3.org/2000/svg" xmlns:xlink="http://www.w3.org/1999/xlink" width="141.05287" height="70.81729" viewBox="0,0,141.05287,70.81729"><g transform="translate(-169.47357,-144.59136)"><g data-paper-data="{&quot;isPaintingLayer&quot;:true}" fill="none" fill-rule="nonzero" stroke="#000000" stroke-width="2" stroke-linecap="butt" stroke-linejoin="miter" stroke-miterlimit="10" stroke-dasharray="" stroke-dashoffset="0" style="mix-blend-mode: normal"><path d="M171.67418,160.45022c2.1619,-8.37861 16.80039,-14.85886 34.5369,-14.85886c18.96298,0 34.38465,7.40743 34.80331,16.62269"/><path d="M309.52643,156.31868c-0.41866,12.14627 -15.84033,21.90972 -34.80331,21.90972c-17.73652,0 -32.375,-8.54136 -34.5369,-19.58488"/><path d="M170.47357,196.63046c2.1619,-8.37861 16.80039,-14.85886 34.5369,-14.85886c18.96298,0 34.38465,7.40743 34.80331,16.62269"/><path d="M308.32582,192.49892c-0.41866,12.14627 -15.84033,21.90972 -34.80331,21.90972c-17.73652,0 -32.375,-8.54136 -34.5369,-19.58488"/></g></g></svg>