<svg version="1.1" xmlns="http://www.w3.org/2000/svg" xmlns:xlink="http://www.w3.org/1999/xlink" width="49.99036" height="135.28509" viewBox="0,0,49.99036,135.28509"><g transform="translate(-198.99475,-108.1533)"><g data-paper-data="{&quot;isPaintingLayer&quot;:true}" fill="#000000" fill-rule="nonzero" stroke="none" stroke-width="0.5" stroke-linecap="butt" stroke-linejoin="miter" stroke-miterlimit="10" stroke-dasharray="" stroke-dashoffset="0" style="mix-blend-mode: normal"><path d="M230.57738,175.60623l0.03402,-0.45433c-0.30255,-1.84954 -0.46098,-3.72885 -0.46668,-5.60296c0.00404,-2.04118 -0.43332,-4.06709 -0.43214,-6.10828c0.00113,-1.96141 0.55606,-3.91032 0.43597,-5.86805c-0.35462,-5.78122 -1.52176,-11.51234 -0.84499,-17.35887c0.11404,-0.98521 0.77284,-1.86325 0.84697,-2.85226c0.1921,-2.5626 -0.70547,-5.72787 -0.86485,-8.30567c-0.18552,-3.00065 -0.37237,-6.04165 -0.22604,-9.01884c-3.1993,-0.15949 -6.53527,0.74684 -9.59185,3.02801c-2.20577,1.6462 -3.71357,4.06338 -5.56589,6.09914c-3.92536,4.31409 -7.29541,7.74311 -9.13901,13.37841c-1.15155,3.51992 -0.60779,8.35306 -0.7725,11.97671c0,0 -0.11352,2.49742 -2.61094,2.3839c-2.49742,-0.11352 -2.3839,-2.61094 -2.3839,-2.61094c0.18664,-4.10611 -0.29489,-9.13447 0.95815,-13.11776c2.01659,-6.41052 5.81801,-10.50433 10.24996,-15.37529c2.0445,-2.24702 3.74268,-4.89233 6.19689,-6.68284c4.02152,-2.93396 8.69486,-4.17342 13.25733,-3.91085c0.4227,-1.98188 1.09094,-3.90628 2.11422,-5.73908c0,0 1.24035,-2.17061 3.41096,-0.93026c2.17061,1.24035 0.93026,3.41096 0.93026,3.41096c-0.75791,1.28775 -1.27117,2.67206 -1.60586,4.11722c4.50304,1.35516 8.59931,4.22209 11.46214,8.39218c2.57303,3.74795 3.00003,7.56154 3.01552,11.93274c-1.24857,9.7682 -6.98883,17.49733 -10.07402,26.59292c-0.73151,2.15662 -1.16261,6.69132 -1.63064,8.62867c-0.30983,1.28253 -1.05062,2.44674 -1.27718,3.74658c-0.38505,2.20918 1.77799,4.12912 2.413,6.27983c1.88448,6.38249 1.21869,13.80234 2.31904,20.38315l0.39203,1.53531c0,0 0.60634,2.42536 -1.81902,3.0317c-2.42536,0.60634 -3.0317,-1.81902 -3.0317,-1.81902l-0.47329,-1.92599c-1.05463,-6.3471 -0.32734,-13.71483 -2.19619,-19.8368c-0.70607,-2.31295 -2.00101,-3.76312 -2.46378,-5.74533c-0.566,-0.72532 -0.566,-1.65399 -0.566,-1.65399zM234.70577,131.73001c0.49251,6.4026 -0.93686,12.52569 -0.43489,19.00821c0.22921,2.96003 0.43226,5.86984 0.58482,8.77624c3.05134,-7.82961 8.10193,-14.8912 9.13908,-23.43594c0.03184,-6.87339 -4.32797,-12.60724 -10.03321,-14.939c-0.03661,3.56812 0.48702,7.24709 0.7442,10.59049z"/><path d="M236.63572,241.02625c-1.70187,-1.89108 -1.30048,-5.12046 0.03383,-7.49674c-0.31136,-1.3004 -0.22335,-2.65012 0.74153,-4.24018c1.13094,-1.86371 6.32642,-5.38594 8.68332,-2.23329c2.19192,2.93197 0.63461,9.57151 -1.42529,12.25088c-0.32117,0.41775 -0.66697,0.8817 -1.04075,1.32573c-0.32735,0.54023 -0.73764,1.04639 -1.05197,1.59197l-3.44172,1.21376c0,0 -2.44108,0 -2.49895,-2.41214z"/></g></g></svg>